<mxfile host="Electron" modified="2024-03-22T04:29:16.784Z" agent="Mozilla/5.0 (Windows NT 10.0; Win64; x64) AppleWebKit/537.36 (KHTML, like Gecko) draw.io/24.0.4 Chrome/120.0.6099.109 Electron/28.1.0 Safari/537.36" etag="wHcGjGO22s9WYPPTJzhx" version="24.0.4" type="device">
  <diagram id="C5RBs43oDa-KdzZeNtuy" name="Page-1">
    <mxGraphModel dx="2333" dy="1380" grid="1" gridSize="10" guides="1" tooltips="1" connect="1" arrows="1" fold="1" page="1" pageScale="1" pageWidth="827" pageHeight="1169" math="0" shadow="0">
      <root>
        <mxCell id="WIyWlLk6GJQsqaUBKTNV-0" />
        <mxCell id="WIyWlLk6GJQsqaUBKTNV-1" parent="WIyWlLk6GJQsqaUBKTNV-0" />
        <mxCell id="WIyWlLk6GJQsqaUBKTNV-2" value="" style="rounded=0;html=1;jettySize=auto;orthogonalLoop=1;fontSize=11;endArrow=block;endFill=0;endSize=8;strokeWidth=1;shadow=0;labelBackgroundColor=none;edgeStyle=orthogonalEdgeStyle;" parent="WIyWlLk6GJQsqaUBKTNV-1" source="WIyWlLk6GJQsqaUBKTNV-3" edge="1">
          <mxGeometry relative="1" as="geometry">
            <mxPoint x="220" y="170" as="targetPoint" />
          </mxGeometry>
        </mxCell>
        <mxCell id="WIyWlLk6GJQsqaUBKTNV-3" value="message start delimiter&lt;div&gt;(0xAA)&lt;/div&gt;" style="rounded=1;whiteSpace=wrap;html=1;fontSize=12;glass=0;strokeWidth=1;shadow=0;" parent="WIyWlLk6GJQsqaUBKTNV-1" vertex="1">
          <mxGeometry x="160" y="80" width="120" height="40" as="geometry" />
        </mxCell>
        <mxCell id="WIyWlLk6GJQsqaUBKTNV-8" value="No" style="rounded=0;html=1;jettySize=auto;orthogonalLoop=1;fontSize=11;endArrow=block;endFill=0;endSize=8;strokeWidth=1;shadow=0;labelBackgroundColor=none;edgeStyle=orthogonalEdgeStyle;" parent="WIyWlLk6GJQsqaUBKTNV-1" edge="1">
          <mxGeometry x="0.3333" y="20" relative="1" as="geometry">
            <mxPoint as="offset" />
            <mxPoint x="220" y="370" as="sourcePoint" />
            <mxPoint x="220" y="430" as="targetPoint" />
          </mxGeometry>
        </mxCell>
        <mxCell id="ti8U-dDHKTGh5M9syIuE-1" value="Take USART MUTEX" style="rounded=1;whiteSpace=wrap;html=1;fontSize=12;glass=0;strokeWidth=1;shadow=0;" vertex="1" parent="WIyWlLk6GJQsqaUBKTNV-1">
          <mxGeometry x="160" y="170" width="120" height="40" as="geometry" />
        </mxCell>
        <mxCell id="ti8U-dDHKTGh5M9syIuE-6" style="edgeStyle=orthogonalEdgeStyle;rounded=0;orthogonalLoop=1;jettySize=auto;html=1;exitX=0.5;exitY=1;exitDx=0;exitDy=0;entryX=0.5;entryY=0;entryDx=0;entryDy=0;" edge="1" parent="WIyWlLk6GJQsqaUBKTNV-1" source="ti8U-dDHKTGh5M9syIuE-2" target="ti8U-dDHKTGh5M9syIuE-5">
          <mxGeometry relative="1" as="geometry" />
        </mxCell>
        <mxCell id="ti8U-dDHKTGh5M9syIuE-2" value="Loop and assemble until 0x03 (end delimiter)&lt;div&gt;Release MUTEX&lt;/div&gt;" style="rounded=1;whiteSpace=wrap;html=1;fontSize=12;glass=0;strokeWidth=1;shadow=0;" vertex="1" parent="WIyWlLk6GJQsqaUBKTNV-1">
          <mxGeometry x="160" y="260" width="120" height="40" as="geometry" />
        </mxCell>
        <mxCell id="ti8U-dDHKTGh5M9syIuE-4" value="" style="rounded=0;html=1;jettySize=auto;orthogonalLoop=1;fontSize=11;endArrow=block;endFill=0;endSize=8;strokeWidth=1;shadow=0;labelBackgroundColor=none;edgeStyle=orthogonalEdgeStyle;exitX=0.5;exitY=1;exitDx=0;exitDy=0;entryX=0.5;entryY=0;entryDx=0;entryDy=0;" edge="1" parent="WIyWlLk6GJQsqaUBKTNV-1" source="ti8U-dDHKTGh5M9syIuE-1" target="ti8U-dDHKTGh5M9syIuE-2">
          <mxGeometry relative="1" as="geometry">
            <mxPoint x="230" y="130" as="sourcePoint" />
            <mxPoint x="230" y="180" as="targetPoint" />
          </mxGeometry>
        </mxCell>
        <mxCell id="ti8U-dDHKTGh5M9syIuE-5" value="is ping?&lt;div&gt;(device type 0x05)&lt;/div&gt;" style="rhombus;whiteSpace=wrap;html=1;" vertex="1" parent="WIyWlLk6GJQsqaUBKTNV-1">
          <mxGeometry x="165" y="320" width="110" height="60" as="geometry" />
        </mxCell>
        <mxCell id="ti8U-dDHKTGh5M9syIuE-8" value="" style="endArrow=classic;html=1;rounded=0;exitX=1;exitY=0.5;exitDx=0;exitDy=0;entryX=0;entryY=0.5;entryDx=0;entryDy=0;" edge="1" parent="WIyWlLk6GJQsqaUBKTNV-1" source="ti8U-dDHKTGh5M9syIuE-5">
          <mxGeometry width="50" height="50" relative="1" as="geometry">
            <mxPoint x="390" y="350" as="sourcePoint" />
            <mxPoint x="360" y="350" as="targetPoint" />
          </mxGeometry>
        </mxCell>
        <mxCell id="ti8U-dDHKTGh5M9syIuE-9" value="Yes" style="edgeLabel;html=1;align=center;verticalAlign=middle;resizable=0;points=[];" vertex="1" connectable="0" parent="ti8U-dDHKTGh5M9syIuE-8">
          <mxGeometry x="0.1012" y="-3" relative="1" as="geometry">
            <mxPoint x="-2" y="7" as="offset" />
          </mxGeometry>
        </mxCell>
        <mxCell id="ti8U-dDHKTGh5M9syIuE-12" style="edgeStyle=orthogonalEdgeStyle;rounded=0;orthogonalLoop=1;jettySize=auto;html=1;exitX=1;exitY=0.5;exitDx=0;exitDy=0;entryX=0;entryY=0.5;entryDx=0;entryDy=0;" edge="1" parent="WIyWlLk6GJQsqaUBKTNV-1" source="ti8U-dDHKTGh5M9syIuE-10" target="ti8U-dDHKTGh5M9syIuE-11">
          <mxGeometry relative="1" as="geometry" />
        </mxCell>
        <mxCell id="ti8U-dDHKTGh5M9syIuE-13" value="Yes" style="edgeLabel;html=1;align=center;verticalAlign=middle;resizable=0;points=[];" vertex="1" connectable="0" parent="ti8U-dDHKTGh5M9syIuE-12">
          <mxGeometry x="0.1733" y="-2" relative="1" as="geometry">
            <mxPoint x="-3" y="8" as="offset" />
          </mxGeometry>
        </mxCell>
        <mxCell id="ti8U-dDHKTGh5M9syIuE-15" style="edgeStyle=orthogonalEdgeStyle;rounded=0;orthogonalLoop=1;jettySize=auto;html=1;exitX=0.5;exitY=0;exitDx=0;exitDy=0;entryX=0.5;entryY=1;entryDx=0;entryDy=0;" edge="1" parent="WIyWlLk6GJQsqaUBKTNV-1" source="ti8U-dDHKTGh5M9syIuE-10" target="ti8U-dDHKTGh5M9syIuE-14">
          <mxGeometry relative="1" as="geometry" />
        </mxCell>
        <mxCell id="ti8U-dDHKTGh5M9syIuE-16" value="No" style="edgeLabel;html=1;align=center;verticalAlign=middle;resizable=0;points=[];" vertex="1" connectable="0" parent="ti8U-dDHKTGh5M9syIuE-15">
          <mxGeometry x="-0.1" relative="1" as="geometry">
            <mxPoint x="15" y="-2" as="offset" />
          </mxGeometry>
        </mxCell>
        <mxCell id="ti8U-dDHKTGh5M9syIuE-10" value="Device ID&lt;div&gt;(Byte 8)&lt;/div&gt;&lt;div&gt;match?&lt;/div&gt;" style="rhombus;whiteSpace=wrap;html=1;" vertex="1" parent="WIyWlLk6GJQsqaUBKTNV-1">
          <mxGeometry x="360" y="320" width="110" height="60" as="geometry" />
        </mxCell>
        <mxCell id="ti8U-dDHKTGh5M9syIuE-11" value="Send notification&lt;div&gt;to RS485OUT&lt;/div&gt;" style="rounded=1;whiteSpace=wrap;html=1;fontSize=12;glass=0;strokeWidth=1;shadow=0;" vertex="1" parent="WIyWlLk6GJQsqaUBKTNV-1">
          <mxGeometry x="560" y="320" width="120" height="60" as="geometry" />
        </mxCell>
        <mxCell id="ti8U-dDHKTGh5M9syIuE-14" value="Do nothing" style="rounded=1;whiteSpace=wrap;html=1;fontSize=12;glass=0;strokeWidth=1;shadow=0;" vertex="1" parent="WIyWlLk6GJQsqaUBKTNV-1">
          <mxGeometry x="355" y="240" width="120" height="40" as="geometry" />
        </mxCell>
        <mxCell id="ti8U-dDHKTGh5M9syIuE-19" style="edgeStyle=orthogonalEdgeStyle;rounded=0;orthogonalLoop=1;jettySize=auto;html=1;exitX=1;exitY=0.5;exitDx=0;exitDy=0;entryX=0;entryY=0.5;entryDx=0;entryDy=0;" edge="1" parent="WIyWlLk6GJQsqaUBKTNV-1" source="ti8U-dDHKTGh5M9syIuE-17" target="ti8U-dDHKTGh5M9syIuE-18">
          <mxGeometry relative="1" as="geometry" />
        </mxCell>
        <mxCell id="ti8U-dDHKTGh5M9syIuE-36" value="Yes" style="edgeLabel;html=1;align=center;verticalAlign=middle;resizable=0;points=[];" vertex="1" connectable="0" parent="ti8U-dDHKTGh5M9syIuE-19">
          <mxGeometry x="0.175" y="-3" relative="1" as="geometry">
            <mxPoint as="offset" />
          </mxGeometry>
        </mxCell>
        <mxCell id="ti8U-dDHKTGh5M9syIuE-48" style="edgeStyle=orthogonalEdgeStyle;rounded=0;orthogonalLoop=1;jettySize=auto;html=1;exitX=0.5;exitY=1;exitDx=0;exitDy=0;" edge="1" parent="WIyWlLk6GJQsqaUBKTNV-1" source="ti8U-dDHKTGh5M9syIuE-17">
          <mxGeometry relative="1" as="geometry">
            <mxPoint x="220" y="800" as="targetPoint" />
          </mxGeometry>
        </mxCell>
        <mxCell id="ti8U-dDHKTGh5M9syIuE-80" value="No" style="edgeLabel;html=1;align=center;verticalAlign=middle;resizable=0;points=[];" vertex="1" connectable="0" parent="ti8U-dDHKTGh5M9syIuE-48">
          <mxGeometry x="-0.082" y="-3" relative="1" as="geometry">
            <mxPoint x="23" as="offset" />
          </mxGeometry>
        </mxCell>
        <mxCell id="ti8U-dDHKTGh5M9syIuE-17" value="Channel Match" style="rhombus;whiteSpace=wrap;html=1;" vertex="1" parent="WIyWlLk6GJQsqaUBKTNV-1">
          <mxGeometry x="165" y="430" width="110" height="60" as="geometry" />
        </mxCell>
        <mxCell id="ti8U-dDHKTGh5M9syIuE-21" style="edgeStyle=orthogonalEdgeStyle;rounded=0;orthogonalLoop=1;jettySize=auto;html=1;exitX=1;exitY=0.5;exitDx=0;exitDy=0;entryX=0;entryY=0.5;entryDx=0;entryDy=0;" edge="1" parent="WIyWlLk6GJQsqaUBKTNV-1" source="ti8U-dDHKTGh5M9syIuE-18" target="ti8U-dDHKTGh5M9syIuE-20">
          <mxGeometry relative="1" as="geometry" />
        </mxCell>
        <mxCell id="ti8U-dDHKTGh5M9syIuE-22" value="No" style="edgeLabel;html=1;align=center;verticalAlign=middle;resizable=0;points=[];" vertex="1" connectable="0" parent="ti8U-dDHKTGh5M9syIuE-21">
          <mxGeometry x="0.0484" y="-1" relative="1" as="geometry">
            <mxPoint x="5" y="9" as="offset" />
          </mxGeometry>
        </mxCell>
        <mxCell id="ti8U-dDHKTGh5M9syIuE-38" style="edgeStyle=orthogonalEdgeStyle;rounded=0;orthogonalLoop=1;jettySize=auto;html=1;exitX=0.5;exitY=1;exitDx=0;exitDy=0;entryX=0.5;entryY=0;entryDx=0;entryDy=0;" edge="1" parent="WIyWlLk6GJQsqaUBKTNV-1" source="ti8U-dDHKTGh5M9syIuE-18" target="ti8U-dDHKTGh5M9syIuE-39">
          <mxGeometry relative="1" as="geometry">
            <mxPoint x="410" y="544.5" as="targetPoint" />
          </mxGeometry>
        </mxCell>
        <mxCell id="ti8U-dDHKTGh5M9syIuE-41" value="Yes" style="edgeLabel;html=1;align=center;verticalAlign=middle;resizable=0;points=[];" vertex="1" connectable="0" parent="ti8U-dDHKTGh5M9syIuE-38">
          <mxGeometry x="-0.2533" y="1" relative="1" as="geometry">
            <mxPoint as="offset" />
          </mxGeometry>
        </mxCell>
        <mxCell id="ti8U-dDHKTGh5M9syIuE-18" value="Device on Device table?" style="rhombus;whiteSpace=wrap;html=1;" vertex="1" parent="WIyWlLk6GJQsqaUBKTNV-1">
          <mxGeometry x="355" y="430" width="110" height="60" as="geometry" />
        </mxCell>
        <mxCell id="ti8U-dDHKTGh5M9syIuE-24" style="edgeStyle=orthogonalEdgeStyle;rounded=0;orthogonalLoop=1;jettySize=auto;html=1;exitX=1;exitY=0.5;exitDx=0;exitDy=0;entryX=0;entryY=0.5;entryDx=0;entryDy=0;" edge="1" parent="WIyWlLk6GJQsqaUBKTNV-1" source="ti8U-dDHKTGh5M9syIuE-20" target="ti8U-dDHKTGh5M9syIuE-23">
          <mxGeometry relative="1" as="geometry" />
        </mxCell>
        <mxCell id="ti8U-dDHKTGh5M9syIuE-20" value="Add to table" style="rounded=1;whiteSpace=wrap;html=1;fontSize=12;glass=0;strokeWidth=1;shadow=0;" vertex="1" parent="WIyWlLk6GJQsqaUBKTNV-1">
          <mxGeometry x="560" y="440" width="120" height="40" as="geometry" />
        </mxCell>
        <mxCell id="ti8U-dDHKTGh5M9syIuE-26" style="edgeStyle=orthogonalEdgeStyle;rounded=0;orthogonalLoop=1;jettySize=auto;html=1;exitX=1;exitY=0.5;exitDx=0;exitDy=0;entryX=0;entryY=0.5;entryDx=0;entryDy=0;" edge="1" parent="WIyWlLk6GJQsqaUBKTNV-1" source="ti8U-dDHKTGh5M9syIuE-23" target="ti8U-dDHKTGh5M9syIuE-25">
          <mxGeometry relative="1" as="geometry" />
        </mxCell>
        <mxCell id="ti8U-dDHKTGh5M9syIuE-23" value="Send check to DS&lt;div&gt;(0x05, index)&lt;/div&gt;" style="rounded=1;whiteSpace=wrap;html=1;fontSize=12;glass=0;strokeWidth=1;shadow=0;" vertex="1" parent="WIyWlLk6GJQsqaUBKTNV-1">
          <mxGeometry x="760" y="440" width="120" height="40" as="geometry" />
        </mxCell>
        <mxCell id="ti8U-dDHKTGh5M9syIuE-29" style="edgeStyle=orthogonalEdgeStyle;rounded=0;orthogonalLoop=1;jettySize=auto;html=1;exitX=1;exitY=0.5;exitDx=0;exitDy=0;" edge="1" parent="WIyWlLk6GJQsqaUBKTNV-1" source="ti8U-dDHKTGh5M9syIuE-25" target="ti8U-dDHKTGh5M9syIuE-28">
          <mxGeometry relative="1" as="geometry" />
        </mxCell>
        <mxCell id="ti8U-dDHKTGh5M9syIuE-25" value="Wait 2ms for processing" style="rounded=1;whiteSpace=wrap;html=1;fontSize=12;glass=0;strokeWidth=1;shadow=0;" vertex="1" parent="WIyWlLk6GJQsqaUBKTNV-1">
          <mxGeometry x="960" y="440" width="120" height="40" as="geometry" />
        </mxCell>
        <mxCell id="ti8U-dDHKTGh5M9syIuE-32" style="edgeStyle=orthogonalEdgeStyle;rounded=0;orthogonalLoop=1;jettySize=auto;html=1;exitX=1;exitY=0.5;exitDx=0;exitDy=0;entryX=0;entryY=0.5;entryDx=0;entryDy=0;" edge="1" parent="WIyWlLk6GJQsqaUBKTNV-1" source="ti8U-dDHKTGh5M9syIuE-28" target="ti8U-dDHKTGh5M9syIuE-31">
          <mxGeometry relative="1" as="geometry" />
        </mxCell>
        <mxCell id="ti8U-dDHKTGh5M9syIuE-35" value="No" style="edgeLabel;html=1;align=center;verticalAlign=middle;resizable=0;points=[];" vertex="1" connectable="0" parent="ti8U-dDHKTGh5M9syIuE-32">
          <mxGeometry x="-0.19" relative="1" as="geometry">
            <mxPoint as="offset" />
          </mxGeometry>
        </mxCell>
        <mxCell id="ti8U-dDHKTGh5M9syIuE-33" style="edgeStyle=orthogonalEdgeStyle;rounded=0;orthogonalLoop=1;jettySize=auto;html=1;exitX=0.5;exitY=0;exitDx=0;exitDy=0;entryX=0.5;entryY=1;entryDx=0;entryDy=0;" edge="1" parent="WIyWlLk6GJQsqaUBKTNV-1" source="ti8U-dDHKTGh5M9syIuE-28" target="ti8U-dDHKTGh5M9syIuE-30">
          <mxGeometry relative="1" as="geometry" />
        </mxCell>
        <mxCell id="ti8U-dDHKTGh5M9syIuE-34" value="Yes" style="edgeLabel;html=1;align=center;verticalAlign=middle;resizable=0;points=[];" vertex="1" connectable="0" parent="ti8U-dDHKTGh5M9syIuE-33">
          <mxGeometry y="-1" relative="1" as="geometry">
            <mxPoint as="offset" />
          </mxGeometry>
        </mxCell>
        <mxCell id="ti8U-dDHKTGh5M9syIuE-28" value="Relevant?&lt;div&gt;(check table)&lt;/div&gt;" style="rhombus;whiteSpace=wrap;html=1;" vertex="1" parent="WIyWlLk6GJQsqaUBKTNV-1">
          <mxGeometry x="1160" y="430" width="110" height="60" as="geometry" />
        </mxCell>
        <mxCell id="ti8U-dDHKTGh5M9syIuE-30" value="Pass to DS&lt;div&gt;(remove header)&lt;/div&gt;" style="rounded=1;whiteSpace=wrap;html=1;fontSize=12;glass=0;strokeWidth=1;shadow=0;" vertex="1" parent="WIyWlLk6GJQsqaUBKTNV-1">
          <mxGeometry x="1155" y="330" width="120" height="40" as="geometry" />
        </mxCell>
        <mxCell id="ti8U-dDHKTGh5M9syIuE-31" value="Discard" style="rounded=1;whiteSpace=wrap;html=1;fontSize=12;glass=0;strokeWidth=1;shadow=0;" vertex="1" parent="WIyWlLk6GJQsqaUBKTNV-1">
          <mxGeometry x="1350" y="440" width="120" height="40" as="geometry" />
        </mxCell>
        <mxCell id="ti8U-dDHKTGh5M9syIuE-43" style="edgeStyle=orthogonalEdgeStyle;rounded=0;orthogonalLoop=1;jettySize=auto;html=1;exitX=1;exitY=0.5;exitDx=0;exitDy=0;entryX=0;entryY=0.5;entryDx=0;entryDy=0;" edge="1" parent="WIyWlLk6GJQsqaUBKTNV-1" source="ti8U-dDHKTGh5M9syIuE-39" target="ti8U-dDHKTGh5M9syIuE-42">
          <mxGeometry relative="1" as="geometry" />
        </mxCell>
        <mxCell id="ti8U-dDHKTGh5M9syIuE-44" value="No" style="edgeLabel;html=1;align=center;verticalAlign=middle;resizable=0;points=[];" vertex="1" connectable="0" parent="ti8U-dDHKTGh5M9syIuE-43">
          <mxGeometry x="-0.0779" y="-1" relative="1" as="geometry">
            <mxPoint as="offset" />
          </mxGeometry>
        </mxCell>
        <mxCell id="ti8U-dDHKTGh5M9syIuE-46" style="edgeStyle=orthogonalEdgeStyle;rounded=0;orthogonalLoop=1;jettySize=auto;html=1;exitX=0.5;exitY=1;exitDx=0;exitDy=0;entryX=0.5;entryY=0;entryDx=0;entryDy=0;" edge="1" parent="WIyWlLk6GJQsqaUBKTNV-1" source="ti8U-dDHKTGh5M9syIuE-39" target="ti8U-dDHKTGh5M9syIuE-45">
          <mxGeometry relative="1" as="geometry" />
        </mxCell>
        <mxCell id="ti8U-dDHKTGh5M9syIuE-47" value="Yes" style="edgeLabel;html=1;align=center;verticalAlign=middle;resizable=0;points=[];" vertex="1" connectable="0" parent="ti8U-dDHKTGh5M9syIuE-46">
          <mxGeometry x="-0.1267" y="1" relative="1" as="geometry">
            <mxPoint as="offset" />
          </mxGeometry>
        </mxCell>
        <mxCell id="ti8U-dDHKTGh5M9syIuE-39" value="Relevant?" style="rhombus;whiteSpace=wrap;html=1;" vertex="1" parent="WIyWlLk6GJQsqaUBKTNV-1">
          <mxGeometry x="355" y="550" width="110" height="60" as="geometry" />
        </mxCell>
        <mxCell id="ti8U-dDHKTGh5M9syIuE-42" value="Discard" style="rounded=1;whiteSpace=wrap;html=1;fontSize=12;glass=0;strokeWidth=1;shadow=0;" vertex="1" parent="WIyWlLk6GJQsqaUBKTNV-1">
          <mxGeometry x="560" y="560" width="120" height="40" as="geometry" />
        </mxCell>
        <mxCell id="ti8U-dDHKTGh5M9syIuE-45" value="Pass to DS&lt;div&gt;(remove header)&lt;/div&gt;" style="rounded=1;whiteSpace=wrap;html=1;fontSize=12;glass=0;strokeWidth=1;shadow=0;" vertex="1" parent="WIyWlLk6GJQsqaUBKTNV-1">
          <mxGeometry x="350" y="670" width="120" height="40" as="geometry" />
        </mxCell>
        <mxCell id="ti8U-dDHKTGh5M9syIuE-50" style="edgeStyle=orthogonalEdgeStyle;rounded=0;orthogonalLoop=1;jettySize=auto;html=1;exitX=1;exitY=0.5;exitDx=0;exitDy=0;" edge="1" parent="WIyWlLk6GJQsqaUBKTNV-1" source="ti8U-dDHKTGh5M9syIuE-49">
          <mxGeometry relative="1" as="geometry">
            <mxPoint x="360" y="830" as="targetPoint" />
          </mxGeometry>
        </mxCell>
        <mxCell id="ti8U-dDHKTGh5M9syIuE-81" value="Yes" style="edgeLabel;html=1;align=center;verticalAlign=middle;resizable=0;points=[];" vertex="1" connectable="0" parent="ti8U-dDHKTGh5M9syIuE-50">
          <mxGeometry x="-0.166" y="-4" relative="1" as="geometry">
            <mxPoint x="9" y="6" as="offset" />
          </mxGeometry>
        </mxCell>
        <mxCell id="ti8U-dDHKTGh5M9syIuE-83" style="edgeStyle=orthogonalEdgeStyle;rounded=0;orthogonalLoop=1;jettySize=auto;html=1;exitX=0.5;exitY=1;exitDx=0;exitDy=0;entryX=0.5;entryY=0;entryDx=0;entryDy=0;" edge="1" parent="WIyWlLk6GJQsqaUBKTNV-1" source="ti8U-dDHKTGh5M9syIuE-49" target="ti8U-dDHKTGh5M9syIuE-82">
          <mxGeometry relative="1" as="geometry" />
        </mxCell>
        <mxCell id="ti8U-dDHKTGh5M9syIuE-84" value="No" style="edgeLabel;html=1;align=center;verticalAlign=middle;resizable=0;points=[];" vertex="1" connectable="0" parent="ti8U-dDHKTGh5M9syIuE-83">
          <mxGeometry x="-0.2229" y="4" relative="1" as="geometry">
            <mxPoint y="1" as="offset" />
          </mxGeometry>
        </mxCell>
        <mxCell id="ti8U-dDHKTGh5M9syIuE-49" value="Special Channel?" style="rhombus;whiteSpace=wrap;html=1;" vertex="1" parent="WIyWlLk6GJQsqaUBKTNV-1">
          <mxGeometry x="165" y="800" width="110" height="60" as="geometry" />
        </mxCell>
        <mxCell id="ti8U-dDHKTGh5M9syIuE-51" style="edgeStyle=orthogonalEdgeStyle;rounded=0;orthogonalLoop=1;jettySize=auto;html=1;exitX=1;exitY=0.5;exitDx=0;exitDy=0;entryX=0;entryY=0.5;entryDx=0;entryDy=0;" edge="1" parent="WIyWlLk6GJQsqaUBKTNV-1" source="ti8U-dDHKTGh5M9syIuE-55" target="ti8U-dDHKTGh5M9syIuE-57">
          <mxGeometry relative="1" as="geometry" />
        </mxCell>
        <mxCell id="ti8U-dDHKTGh5M9syIuE-52" value="No" style="edgeLabel;html=1;align=center;verticalAlign=middle;resizable=0;points=[];" vertex="1" connectable="0" parent="ti8U-dDHKTGh5M9syIuE-51">
          <mxGeometry x="0.0484" y="-1" relative="1" as="geometry">
            <mxPoint x="5" y="9" as="offset" />
          </mxGeometry>
        </mxCell>
        <mxCell id="ti8U-dDHKTGh5M9syIuE-53" style="edgeStyle=orthogonalEdgeStyle;rounded=0;orthogonalLoop=1;jettySize=auto;html=1;exitX=0.5;exitY=1;exitDx=0;exitDy=0;entryX=0.5;entryY=0;entryDx=0;entryDy=0;" edge="1" parent="WIyWlLk6GJQsqaUBKTNV-1" source="ti8U-dDHKTGh5M9syIuE-55" target="ti8U-dDHKTGh5M9syIuE-61">
          <mxGeometry relative="1" as="geometry">
            <mxPoint x="415" y="914.5" as="targetPoint" />
          </mxGeometry>
        </mxCell>
        <mxCell id="ti8U-dDHKTGh5M9syIuE-54" value="Yes" style="edgeLabel;html=1;align=center;verticalAlign=middle;resizable=0;points=[];" vertex="1" connectable="0" parent="ti8U-dDHKTGh5M9syIuE-53">
          <mxGeometry x="-0.2533" y="1" relative="1" as="geometry">
            <mxPoint as="offset" />
          </mxGeometry>
        </mxCell>
        <mxCell id="ti8U-dDHKTGh5M9syIuE-55" value="Device on Device table?" style="rhombus;whiteSpace=wrap;html=1;" vertex="1" parent="WIyWlLk6GJQsqaUBKTNV-1">
          <mxGeometry x="360" y="800" width="110" height="60" as="geometry" />
        </mxCell>
        <mxCell id="ti8U-dDHKTGh5M9syIuE-56" style="edgeStyle=orthogonalEdgeStyle;rounded=0;orthogonalLoop=1;jettySize=auto;html=1;exitX=1;exitY=0.5;exitDx=0;exitDy=0;entryX=0;entryY=0.5;entryDx=0;entryDy=0;" edge="1" parent="WIyWlLk6GJQsqaUBKTNV-1" source="ti8U-dDHKTGh5M9syIuE-57" target="ti8U-dDHKTGh5M9syIuE-58">
          <mxGeometry relative="1" as="geometry" />
        </mxCell>
        <mxCell id="ti8U-dDHKTGh5M9syIuE-57" value="Add to table" style="rounded=1;whiteSpace=wrap;html=1;fontSize=12;glass=0;strokeWidth=1;shadow=0;" vertex="1" parent="WIyWlLk6GJQsqaUBKTNV-1">
          <mxGeometry x="565" y="810" width="120" height="40" as="geometry" />
        </mxCell>
        <mxCell id="ti8U-dDHKTGh5M9syIuE-76" style="edgeStyle=orthogonalEdgeStyle;rounded=0;orthogonalLoop=1;jettySize=auto;html=1;exitX=1;exitY=0.5;exitDx=0;exitDy=0;entryX=0;entryY=0.5;entryDx=0;entryDy=0;" edge="1" parent="WIyWlLk6GJQsqaUBKTNV-1" source="ti8U-dDHKTGh5M9syIuE-58" target="ti8U-dDHKTGh5M9syIuE-68">
          <mxGeometry relative="1" as="geometry" />
        </mxCell>
        <mxCell id="ti8U-dDHKTGh5M9syIuE-58" value="Send check to DS&lt;div&gt;(0x05, index)&lt;/div&gt;" style="rounded=1;whiteSpace=wrap;html=1;fontSize=12;glass=0;strokeWidth=1;shadow=0;" vertex="1" parent="WIyWlLk6GJQsqaUBKTNV-1">
          <mxGeometry x="765" y="810" width="120" height="40" as="geometry" />
        </mxCell>
        <mxCell id="ti8U-dDHKTGh5M9syIuE-59" style="edgeStyle=orthogonalEdgeStyle;rounded=0;orthogonalLoop=1;jettySize=auto;html=1;exitX=1;exitY=0.5;exitDx=0;exitDy=0;entryX=0;entryY=0.5;entryDx=0;entryDy=0;" edge="1" parent="WIyWlLk6GJQsqaUBKTNV-1" source="ti8U-dDHKTGh5M9syIuE-61" target="ti8U-dDHKTGh5M9syIuE-62">
          <mxGeometry relative="1" as="geometry" />
        </mxCell>
        <mxCell id="ti8U-dDHKTGh5M9syIuE-60" value="No" style="edgeLabel;html=1;align=center;verticalAlign=middle;resizable=0;points=[];" vertex="1" connectable="0" parent="ti8U-dDHKTGh5M9syIuE-59">
          <mxGeometry x="-0.0779" y="-1" relative="1" as="geometry">
            <mxPoint as="offset" />
          </mxGeometry>
        </mxCell>
        <mxCell id="ti8U-dDHKTGh5M9syIuE-61" value="Relevant?" style="rhombus;whiteSpace=wrap;html=1;" vertex="1" parent="WIyWlLk6GJQsqaUBKTNV-1">
          <mxGeometry x="360" y="920" width="110" height="60" as="geometry" />
        </mxCell>
        <mxCell id="ti8U-dDHKTGh5M9syIuE-62" value="Discard" style="rounded=1;whiteSpace=wrap;html=1;fontSize=12;glass=0;strokeWidth=1;shadow=0;" vertex="1" parent="WIyWlLk6GJQsqaUBKTNV-1">
          <mxGeometry x="565" y="930" width="120" height="40" as="geometry" />
        </mxCell>
        <mxCell id="ti8U-dDHKTGh5M9syIuE-67" style="edgeStyle=orthogonalEdgeStyle;rounded=0;orthogonalLoop=1;jettySize=auto;html=1;exitX=1;exitY=0.5;exitDx=0;exitDy=0;" edge="1" parent="WIyWlLk6GJQsqaUBKTNV-1" source="ti8U-dDHKTGh5M9syIuE-68" target="ti8U-dDHKTGh5M9syIuE-73">
          <mxGeometry relative="1" as="geometry" />
        </mxCell>
        <mxCell id="ti8U-dDHKTGh5M9syIuE-68" value="Wait 2ms for processing" style="rounded=1;whiteSpace=wrap;html=1;fontSize=12;glass=0;strokeWidth=1;shadow=0;" vertex="1" parent="WIyWlLk6GJQsqaUBKTNV-1">
          <mxGeometry x="965" y="810" width="120" height="40" as="geometry" />
        </mxCell>
        <mxCell id="ti8U-dDHKTGh5M9syIuE-69" style="edgeStyle=orthogonalEdgeStyle;rounded=0;orthogonalLoop=1;jettySize=auto;html=1;exitX=1;exitY=0.5;exitDx=0;exitDy=0;entryX=0;entryY=0.5;entryDx=0;entryDy=0;" edge="1" parent="WIyWlLk6GJQsqaUBKTNV-1" source="ti8U-dDHKTGh5M9syIuE-73" target="ti8U-dDHKTGh5M9syIuE-75">
          <mxGeometry relative="1" as="geometry" />
        </mxCell>
        <mxCell id="ti8U-dDHKTGh5M9syIuE-70" value="No" style="edgeLabel;html=1;align=center;verticalAlign=middle;resizable=0;points=[];" vertex="1" connectable="0" parent="ti8U-dDHKTGh5M9syIuE-69">
          <mxGeometry x="-0.19" relative="1" as="geometry">
            <mxPoint as="offset" />
          </mxGeometry>
        </mxCell>
        <mxCell id="ti8U-dDHKTGh5M9syIuE-71" style="edgeStyle=orthogonalEdgeStyle;rounded=0;orthogonalLoop=1;jettySize=auto;html=1;exitX=0.5;exitY=0;exitDx=0;exitDy=0;entryX=0.5;entryY=1;entryDx=0;entryDy=0;" edge="1" parent="WIyWlLk6GJQsqaUBKTNV-1" source="ti8U-dDHKTGh5M9syIuE-73" target="ti8U-dDHKTGh5M9syIuE-74">
          <mxGeometry relative="1" as="geometry" />
        </mxCell>
        <mxCell id="ti8U-dDHKTGh5M9syIuE-72" value="Yes" style="edgeLabel;html=1;align=center;verticalAlign=middle;resizable=0;points=[];" vertex="1" connectable="0" parent="ti8U-dDHKTGh5M9syIuE-71">
          <mxGeometry y="-1" relative="1" as="geometry">
            <mxPoint as="offset" />
          </mxGeometry>
        </mxCell>
        <mxCell id="ti8U-dDHKTGh5M9syIuE-73" value="Relevant?&lt;div&gt;(check table)&lt;/div&gt;" style="rhombus;whiteSpace=wrap;html=1;" vertex="1" parent="WIyWlLk6GJQsqaUBKTNV-1">
          <mxGeometry x="1165" y="800" width="110" height="60" as="geometry" />
        </mxCell>
        <mxCell id="ti8U-dDHKTGh5M9syIuE-74" value="Pass to DS&lt;div&gt;(remove header)&lt;/div&gt;" style="rounded=1;whiteSpace=wrap;html=1;fontSize=12;glass=0;strokeWidth=1;shadow=0;" vertex="1" parent="WIyWlLk6GJQsqaUBKTNV-1">
          <mxGeometry x="1160" y="700" width="120" height="40" as="geometry" />
        </mxCell>
        <mxCell id="ti8U-dDHKTGh5M9syIuE-75" value="Discard" style="rounded=1;whiteSpace=wrap;html=1;fontSize=12;glass=0;strokeWidth=1;shadow=0;" vertex="1" parent="WIyWlLk6GJQsqaUBKTNV-1">
          <mxGeometry x="1355" y="810" width="120" height="40" as="geometry" />
        </mxCell>
        <mxCell id="ti8U-dDHKTGh5M9syIuE-77" style="edgeStyle=orthogonalEdgeStyle;rounded=0;orthogonalLoop=1;jettySize=auto;html=1;exitX=0.5;exitY=1;exitDx=0;exitDy=0;entryX=0.5;entryY=0;entryDx=0;entryDy=0;" edge="1" parent="WIyWlLk6GJQsqaUBKTNV-1" target="ti8U-dDHKTGh5M9syIuE-79">
          <mxGeometry relative="1" as="geometry">
            <mxPoint x="414" y="980" as="sourcePoint" />
          </mxGeometry>
        </mxCell>
        <mxCell id="ti8U-dDHKTGh5M9syIuE-78" value="Yes" style="edgeLabel;html=1;align=center;verticalAlign=middle;resizable=0;points=[];" vertex="1" connectable="0" parent="ti8U-dDHKTGh5M9syIuE-77">
          <mxGeometry x="-0.1267" y="1" relative="1" as="geometry">
            <mxPoint as="offset" />
          </mxGeometry>
        </mxCell>
        <mxCell id="ti8U-dDHKTGh5M9syIuE-79" value="Pass to DS&lt;div&gt;(remove header)&lt;/div&gt;" style="rounded=1;whiteSpace=wrap;html=1;fontSize=12;glass=0;strokeWidth=1;shadow=0;" vertex="1" parent="WIyWlLk6GJQsqaUBKTNV-1">
          <mxGeometry x="354" y="1040" width="120" height="40" as="geometry" />
        </mxCell>
        <mxCell id="ti8U-dDHKTGh5M9syIuE-82" value="Discard" style="rounded=1;whiteSpace=wrap;html=1;fontSize=12;glass=0;strokeWidth=1;shadow=0;" vertex="1" parent="WIyWlLk6GJQsqaUBKTNV-1">
          <mxGeometry x="160" y="930" width="120" height="40" as="geometry" />
        </mxCell>
      </root>
    </mxGraphModel>
  </diagram>
</mxfile>
